<?xml version="1.0" encoding="UTF-8"?>
<svg width="64" height="64" viewBox="0 0 64 64" xmlns="http://www.w3.org/2000/svg">
  <!-- BIM Building (left) -->
  <g stroke="#3498db" stroke-width="2" fill="none">
    <rect x="8" y="20" width="16" height="24" fill="#e8f4fd" opacity="0.8"/>
    <line x1="8" y1="28" x2="24" y2="28"/>
    <line x1="8" y1="36" x2="24" y2="36"/>
    <line x1="12" y1="20" x2="12" y2="44"/>
    <line x1="20" y1="20" x2="20" y2="44"/>
    
    <!-- Windows -->
    <rect x="14" y="22" width="2" height="2" fill="#3498db"/>
    <rect x="14" y="30" width="2" height="2" fill="#3498db"/>
    <rect x="14" y="38" width="2" height="2" fill="#3498db"/>
  </g>
  
  <!-- Structural Model (right) -->
  <g stroke="#e74c3c" stroke-width="2" fill="none">
    <rect x="40" y="20" width="16" height="24" fill="#fdf2f2" opacity="0.8"/>
    <line x1="40" y1="28" x2="56" y2="28"/>
    <line x1="40" y1="36" x2="56" y2="36"/>
    <line x1="44" y1="20" x2="44" y2="44"/>
    <line x1="52" y1="20" x2="52" y2="44"/>
    
    <!-- Structural elements -->
    <line x1="42" y1="26" x2="54" y2="26" stroke-width="3" stroke="#e74c3c"/>
    <line x1="42" y1="34" x2="54" y2="34" stroke-width="3" stroke="#e74c3c"/>
    <line x1="42" y1="42" x2="54" y2="42" stroke-width="3" stroke="#e74c3c"/>
  </g>
  
  <!-- Sync arrows -->
  <g stroke="#27ae60" stroke-width="2" fill="#27ae60">
    <!-- Right arrow -->
    <path d="M26 28 L38 28 M34 24 L38 28 L34 32" stroke-linecap="round"/>
    <!-- Left arrow -->
    <path d="M38 36 L26 36 M30 32 L26 36 L30 40" stroke-linecap="round"/>
  </g>
  
  <!-- Sync symbol in center -->
  <circle cx="32" cy="32" r="6" stroke="#27ae60" stroke-width="2" fill="none"/>
  <path d="M28 30 L30 28 L34 32 L36 30" stroke="#27ae60" stroke-width="2" fill="none" stroke-linecap="round"/>
  <path d="M36 34 L34 36 L30 32 L28 34" stroke="#27ae60" stroke-width="2" fill="none" stroke-linecap="round"/>
  
  <text x="32" y="56" text-anchor="middle" font-family="Arial" font-size="8" fill="#2c3e50">BIM Sync</text>
</svg>