<?xml version="1.0" encoding="UTF-8"?>
<svg width="64" height="64" viewBox="0 0 64 64" xmlns="http://www.w3.org/2000/svg">
  <!-- Structural Analysis Results -->
  <g stroke="#e74c3c" stroke-width="2" fill="none">
    <!-- Beam with moment diagram -->
    <line x1="8" y1="32" x2="40" y2="32" stroke-width="4"/>
    
    <!-- Moment diagram -->
    <path d="M8 32 Q16 24 24 32 Q32 40 40 32" fill="#e74c3c" opacity="0.3"/>
    
    <!-- Support symbols -->
    <g stroke="#2c3e50" stroke-width="2">
      <path d="M6 32 L10 36 L10 28 Z" fill="#2c3e50"/>
      <path d="M38 32 L42 36 L42 28 Z" fill="#2c3e50"/>
    </g>
    
    <!-- Load arrows -->
    <g stroke="#f39c12" stroke-width="2" fill="#f39c12">
      <path d="M16 20 L16 28 M14 26 L16 28 L18 26"/>
      <path d="M24 20 L24 28 M22 26 L24 28 L26 26"/>
      <path d="M32 20 L32 28 M30 26 L32 28 L34 26"/>
    </g>
  </g>
  
  <!-- Export arrow -->
  <g fill="#27ae60" stroke="#27ae60" stroke-width="2">
    <path d="M44 32 L56 32 M52 28 L56 32 L52 36" stroke-linecap="round" stroke-linejoin="round"/>
  </g>
  
  <!-- BIM Building (receiving results) -->
  <g stroke="#2c3e50" stroke-width="1.5" fill="none">
    <rect x="52" y="20" width="8" height="24" fill="#ecf0f1" opacity="0.8"/>
    <line x1="52" y1="28" x2="60" y2="28"/>
    <line x1="52" y1="36" x2="60" y2="36"/>
    
    <!-- Result indicators (colored elements) -->
    <rect x="54" y="22" width="2" height="4" fill="#27ae60"/>  <!-- Green: Safe -->
    <rect x="57" y="22" width="2" height="4" fill="#f39c12"/>  <!-- Yellow: High utilization -->
    <rect x="54" y="38" width="2" height="4" fill="#e74c3c"/>  <!-- Red: Overstressed -->
  </g>
  
  <text x="32" y="58" text-anchor="middle" font-family="Arial" font-size="8" fill="#2c3e50">BIM Export</text>
</svg>