/* XPM */
static char * load_point_xpm[] = {
"32 32 36 1",
" 	c None",
".	c #110101",
"+	c #220303",
"@	c #1C0303",
"#	c #190303",
"$	c #200303",
"%	c #008000",
"&	c #006600",
"*	c #1A0303",
"=	c #1D0303",
"-	c #190202",
";	c #007700",
">	c #100101",
",	c #160202",
"'	c #008800",
")	c #007700",
"!	c #009900",
"~	c #790C0C",
"{	c #00AA00",
"]	c #00BB00",
"^	c #180202",
"/	c #5D0A0A",
"(	c #5D0909",
"_	c #1B0202",
":	c #00CC00",
"<	c #00DD00",
"[	c #1A0202",
"}	c #420707",
"|	c #420606",
"1	c #00EE00",
"2	c #00FF00",
"3	c #2D0404",
"4	c #008000",
"5	c #2E0404",
"6	c #A91010",
"7	c #210303",
"             .+++@#             ",
"             $%%%&$             ",
"             $%%%&$             ",
"             $%%%&$             ",
"             $%%%&$             ",
"             $%%%&$             ",
"             $%%%&$             ",
"             $%%%&$             ",
"             $%%%&$             ",
"             $%%%&$             ",
"             $%%%&$             ",
"             $%%%&$             ",
"             $%%%&$             ",
"             $%%%&$             ",
"             $%%%&$             ",
"             $%%%&$             ",
"             $%%%&$             ",
"             $%%%&$             ",
"             $%%%&$             ",
"             $%%%&$             ",
"          *==-%%%;>==*          ",
"          ,')!%%%%;)',          ",
"           ~%%%%%%%%~           ",
"           -{%%%%%%]^           ",
"            /%%%%%%(            ",
"            _:%%%%<[            ",
"             }%%%%|             ",
"             #1%%2@             ",
"              34%5              ",
"              ^66*              ",
"               77               ",
"                                "};