<?xml version="1.0" encoding="UTF-8"?>
<svg width="64" height="64" viewBox="0 0 64 64" xmlns="http://www.w3.org/2000/svg">
  <defs>
    <linearGradient id="reportGrad" x1="0%" y1="0%" x2="100%" y2="100%">
      <stop offset="0%" style="stop-color:#1976d2;stop-opacity:1" />
      <stop offset="50%" style="stop-color:#1565c0;stop-opacity:1" />
      <stop offset="100%" style="stop-color:#0d47a1;stop-opacity:1" />
    </linearGradient>
    <linearGradient id="paperGrad" x1="0%" y1="0%" x2="100%" y2="100%">
      <stop offset="0%" style="stop-color:#ffffff;stop-opacity:1" />
      <stop offset="100%" style="stop-color:#f5f5f5;stop-opacity:1" />
    </linearGradient>
    <linearGradient id="chartGrad" x1="0%" y1="100%" x2="100%" y2="0%">
      <stop offset="0%" style="stop-color:#4caf50;stop-opacity:1" />
      <stop offset="50%" style="stop-color:#2196f3;stop-opacity:1" />
      <stop offset="100%" style="stop-color:#9c27b0;stop-opacity:1" />
    </linearGradient>
    <radialGradient id="logoGrad" cx="50%" cy="50%" r="50%">
      <stop offset="0%" style="stop-color:#ff9800;stop-opacity:1" />
      <stop offset="100%" style="stop-color:#f57c00;stop-opacity:1" />
    </radialGradient>
  </defs>
  
  <!-- Background -->
  <rect width="64" height="64" rx="8" fill="#e3f2fd" stroke="#1976d2" stroke-width="1"/>
  
  <!-- Title Header -->
  <rect x="2" y="2" width="60" height="10" rx="2" fill="url(#reportGrad)"/>
  <text x="32" y="9" text-anchor="middle" font-family="Arial, sans-serif" font-size="7" font-weight="bold" fill="white">REPORT GEN</text>
  
  <!-- Main Document Stack -->
  <g id="document-stack">
    <!-- Back document (shadow) -->
    <rect x="14" y="16" width="32" height="42" rx="2" fill="#e0e0e0" opacity="0.6"/>
    <rect x="16" y="18" width="32" height="42" rx="2" fill="#f0f0f0" opacity="0.8"/>
    
    <!-- Front document -->
    <rect x="18" y="20" width="32" height="42" rx="2" fill="url(#paperGrad)" stroke="#1976d2" stroke-width="1.5"/>
    
    <!-- Document header -->
    <rect x="20" y="22" width="28" height="6" rx="1" fill="url(#reportGrad)"/>
    <text x="34" y="26.5" text-anchor="middle" font-family="Arial" font-size="5" fill="white" font-weight="bold">ANALYSIS</text>
    
    <!-- Document lines (text content) -->
    <line x1="22" y1="32" x2="46" y2="32" stroke="#666" stroke-width="1"/>
    <line x1="22" y1="35" x2="44" y2="35" stroke="#666" stroke-width="0.8"/>
    <line x1="22" y1="38" x2="48" y2="38" stroke="#666" stroke-width="0.8"/>
    <line x1="22" y1="41" x2="42" y2="41" stroke="#666" stroke-width="0.8"/>
    
    <!-- Structural diagram in document -->
    <g id="structural-diagram" transform="translate(20, 44)">
      <!-- Simple beam representation -->
      <rect x="2" y="4" width="16" height="2" fill="#1976d2"/>
      <circle cx="2" cy="6" r="1.5" fill="#f44336"/>
      <circle cx="18" cy="6" r="1.5" fill="#f44336"/>
      
      <!-- Load arrows -->
      <path d="M6 2 L6 4 M4 3 L6 2 L8 3" stroke="#ff5722" stroke-width="1" fill="none"/>
      <path d="M10 2 L10 4 M8 3 L10 2 L12 3" stroke="#ff5722" stroke-width="1" fill="none"/>
      <path d="M14 2 L14 4 M12 3 L14 2 L16 3" stroke="#ff5722" stroke-width="1" fill="none"/>
      
      <!-- Moment diagram curve -->
      <path d="M2 8 Q10 12 18 8" stroke="#4caf50" stroke-width="1.5" fill="none"/>
    </g>
    
    <!-- Data table representation -->
    <g id="data-table" transform="translate(22, 50)">
      <!-- Table grid -->
      <rect x="0" y="0" width="26" height="8" fill="none" stroke="#ccc" stroke-width="0.5"/>
      <line x1="0" y1="2" x2="26" y2="2" stroke="#ccc" stroke-width="0.5"/>
      <line x1="0" y1="4" x2="26" y2="4" stroke="#ccc" stroke-width="0.5"/>
      <line x1="0" y1="6" x2="26" y2="6" stroke="#ccc" stroke-width="0.5"/>
      <line x1="13" y1="0" x2="13" y2="8" stroke="#ccc" stroke-width="0.5"/>
      
      <!-- Table content -->
      <text x="6.5" y="1.5" text-anchor="middle" font-family="Arial" font-size="3" fill="#333">Member</text>
      <text x="19.5" y="1.5" text-anchor="middle" font-family="Arial" font-size="3" fill="#333">Ratio</text>
      <text x="6.5" y="3.5" text-anchor="middle" font-family="Arial" font-size="3" fill="#666">B1</text>
      <text x="19.5" y="3.5" text-anchor="middle" font-family="Arial" font-size="3" fill="#666">0.85</text>
      <text x="6.5" y="5.5" text-anchor="middle" font-family="Arial" font-size="3" fill="#666">B2</text>
      <text x="19.5" y="5.5" text-anchor="middle" font-family="Arial" font-size="3" fill="#666">0.72</text>
    </g>
  </g>
  
  <!-- Chart/Graph Visualization -->
  <g id="chart-preview">
    <!-- Chart background -->
    <rect x="52" y="18" width="10" height="12" rx="1" fill="white" stroke="#1976d2" stroke-width="1"/>
    
    <!-- Bar chart -->
    <rect x="53" y="26" width="1.5" height="3" fill="#4caf50"/>
    <rect x="55" y="24" width="1.5" height="5" fill="#2196f3"/>
    <rect x="57" y="27" width="1.5" height="2" fill="#ff9800"/>
    <rect x="59" y="22" width="1.5" height="7" fill="#9c27b0"/>
    
    <!-- Chart axes -->
    <line x1="53" y1="29" x2="61" y2="29" stroke="#666" stroke-width="0.5"/>
    <line x1="53" y1="29" x2="53" y2="19" stroke="#666" stroke-width="0.5"/>
  </g>
  
  <!-- Format Icons -->
  <g id="format-icons">
    <!-- PDF icon -->
    <rect x="6" y="48" width="8" height="10" rx="1" fill="#dc3545" stroke="#a71e2a" stroke-width="1"/>
    <text x="10" y="54" text-anchor="middle" font-family="Arial" font-size="4" fill="white" font-weight="bold">PDF</text>
    
    <!-- HTML icon -->
    <rect x="16" y="48" width="8" height="10" rx="1" fill="#28a745" stroke="#1e7e34" stroke-width="1"/>
    <text x="20" y="54" text-anchor="middle" font-family="Arial" font-size="3.5" fill="white" font-weight="bold">HTML</text>
    
    <!-- Excel icon -->
    <rect x="26" y="48" width="8" height="10" rx="1" fill="#198754" stroke="#146c43" stroke-width="1"/>
    <text x="30" y="54" text-anchor="middle" font-family="Arial" font-size="3.5" fill="white" font-weight="bold">XLS</text>
    
    <!-- Format arrows -->
    <path d="M10 46 L10 48" stroke="#666" stroke-width="1" marker-end="url(#arrow)"/>
    <path d="M20 46 L20 48" stroke="#666" stroke-width="1" marker-end="url(#arrow)"/>
    <path d="M30 46 L30 48" stroke="#666" stroke-width="1" marker-end="url(#arrow)"/>
  </g>
  
  <!-- Progress/Generation Indicator -->
  <g id="progress-indicator">
    <!-- Progress bar background -->
    <rect x="38" y="50" width="20" height="3" rx="1.5" fill="#e0e0e0"/>
    <!-- Progress bar fill -->
    <rect x="38" y="50" width="14" height="3" rx="1.5" fill="url(#chartGrad)"/>
    <!-- Progress percentage -->
    <text x="48" y="57" text-anchor="middle" font-family="Arial" font-size="4" fill="#1976d2">70%</text>
  </g>
  
  <!-- Company Logo Placeholder -->
  <circle cx="54" cy="38" r="4" fill="url(#logoGrad)" stroke="#f57c00" stroke-width="1"/>
  <text x="54" y="41" text-anchor="middle" font-family="Arial" font-size="3" fill="white" font-weight="bold">LOGO</text>
  
  <!-- Professional Seal -->
  <circle cx="54" cy="50" r="5" fill="none" stroke="#1976d2" stroke-width="1.5"/>
  <text x="54" y="48" text-anchor="middle" font-family="Arial" font-size="2.5" fill="#1976d2" font-weight="bold">P.E.</text>
  <text x="54" y="52" text-anchor="middle" font-family="Arial" font-size="2" fill="#1976d2">SEAL</text>
  
  <!-- Report Quality Indicators -->
  <g id="quality-badges">
    <!-- AISC compliance -->
    <rect x="4" y="30" width="12" height="4" rx="2" fill="#17a2b8" opacity="0.9"/>
    <text x="10" y="32.7" text-anchor="middle" font-family="Arial" font-size="3" fill="white" font-weight="bold">AISC</text>
    
    <!-- ACI compliance -->
    <rect x="4" y="35" width="12" height="4" rx="2" fill="#6f42c1" opacity="0.9"/>
    <text x="10" y="37.7" text-anchor="middle" font-family="Arial" font-size="3" fill="white" font-weight="bold">ACI</text>
    
    <!-- Professional grade -->
    <rect x="4" y="40" width="12" height="4" rx="2" fill="#fd7e14" opacity="0.9"/>
    <text x="10" y="42.7" text-anchor="middle" font-family="Arial" font-size="2.5" fill="white" font-weight="bold">PROF</text>
  </g>
  
  <!-- Generation Process Flow -->
  <g id="process-flow">
    <!-- Data input -->
    <circle cx="8" cy="20" r="2" fill="#28a745" opacity="0.8"/>
    <text x="8" y="22" text-anchor="middle" font-family="Arial" font-size="2" fill="white">1</text>
    
    <!-- Processing -->
    <circle cx="8" cy="26" r="2" fill="#ffc107" opacity="0.8"/>
    <text x="8" y="28" text-anchor="middle" font-family="Arial" font-size="2" fill="white">2</text>
    
    <!-- Output -->
    <circle cx="8" cy="32" r="2" fill="#17a2b8" opacity="0.8"/>
    <text x="8" y="34" text-anchor="middle" font-family="Arial" font-size="2" fill="white">3</text>
    
    <!-- Flow arrows -->
    <path d="M8 22 L8 24" stroke="#666" stroke-width="1" marker-end="url(#arrow)"/>
    <path d="M8 28 L8 30" stroke="#666" stroke-width="1" marker-end="url(#arrow)"/>
  </g>
  
  <!-- Interactive Features Badge -->
  <rect x="38" y="34" width="20" height="6" rx="3" fill="#e91e63" opacity="0.9"/>
  <text x="48" y="37.5" text-anchor="middle" font-family="Arial" font-size="4" fill="white" font-weight="bold">INTERACTIVE</text>
  
  <!-- Arrow Markers -->
  <defs>
    <marker id="arrow" markerWidth="6" markerHeight="4" refX="5" refY="2" orient="auto">
      <polygon points="0 0, 6 2, 0 4" fill="#666"/>
    </marker>
  </defs>
</svg>