<?xml version="1.0" encoding="UTF-8"?>
<svg width="64" height="64" viewBox="0 0 64 64" xmlns="http://www.w3.org/2000/svg">
  <!-- Drawing sheet -->
  <rect x="6" y="6" width="52" height="40" fill="#ffffff" stroke="#2c3e50" stroke-width="2"/>
  
  <!-- Drawing content -->
  <g stroke="#e74c3c" stroke-width="1.5">
    <!-- Structural plan view -->
    <g>
      <!-- Grid -->
      <line x1="12" y1="12" x2="52" y2="12" stroke="#bdc3c7" stroke-width="0.5" stroke-dasharray="1,1"/>
      <line x1="12" y1="18" x2="52" y2="18" stroke="#bdc3c7" stroke-width="0.5" stroke-dasharray="1,1"/>
      <line x1="12" y1="24" x2="52" y2="24" stroke="#bdc3c7" stroke-width="0.5" stroke-dasharray="1,1"/>
      <line x1="12" y1="30" x2="52" y2="30" stroke="#bdc3c7" stroke-width="0.5" stroke-dasharray="1,1"/>
      
      <line x1="16" y1="10" x2="16" y2="32" stroke="#bdc3c7" stroke-width="0.5" stroke-dasharray="1,1"/>
      <line x1="24" y1="10" x2="24" y2="32" stroke="#bdc3c7" stroke-width="0.5" stroke-dasharray="1,1"/>
      <line x1="32" y1="10" x2="32" y2="32" stroke="#bdc3c7" stroke-width="0.5" stroke-dasharray="1,1"/>
      <line x1="40" y1="10" x2="40" y2="32" stroke="#bdc3c7" stroke-width="0.5" stroke-dasharray="1,1"/>
      <line x1="48" y1="10" x2="48" y2="32" stroke="#bdc3c7" stroke-width="0.5" stroke-dasharray="1,1"/>
      
      <!-- Beams -->
      <line x1="12" y1="12" x2="52" y2="12" stroke-width="2"/>
      <line x1="12" y1="18" x2="52" y2="18" stroke-width="2"/>
      <line x1="12" y1="24" x2="52" y2="24" stroke-width="2"/>
      <line x1="12" y1="30" x2="52" y2="30" stroke-width="2"/>
      
      <!-- Columns -->
      <rect x="14" y="10" width="4" height="4" fill="#2c3e50"/>
      <rect x="22" y="10" width="4" height="4" fill="#2c3e50"/>
      <rect x="30" y="10" width="4" height="4" fill="#2c3e50"/>
      <rect x="38" y="10" width="4" height="4" fill="#2c3e50"/>
      <rect x="46" y="10" width="4" height="4" fill="#2c3e50"/>
      
      <rect x="14" y="28" width="4" height="4" fill="#2c3e50"/>
      <rect x="22" y="28" width="4" height="4" fill="#2c3e50"/>
      <rect x="30" y="28" width="4" height="4" fill="#2c3e50"/>
      <rect x="38" y="28" width="4" height="4" fill="#2c3e50"/>
      <rect x="46" y="28" width="4" height="4" fill="#2c3e50"/>
    </g>
  </g>
  
  <!-- Dimensions -->
  <g stroke="#34495e" stroke-width="1">
    <line x1="16" y1="36" x2="32" y2="36"/>
    <path d="M16 36 L18 35 L18 37 Z" fill="#34495e"/>
    <path d="M32 36 L30 35 L30 37 Z" fill="#34495e"/>
    <text x="24" y="40" text-anchor="middle" font-family="Arial" font-size="6" fill="#34495e">6000</text>
  </g>
  
  <!-- Title block -->
  <rect x="36" y="34" width="20" height="10" fill="#ecf0f1" stroke="#2c3e50" stroke-width="1"/>
  <text x="46" y="40" text-anchor="middle" font-family="Arial" font-size="6" fill="#2c3e50" font-weight="bold">STRUCTURAL PLAN</text>
  <text x="46" y="42" text-anchor="middle" font-family="Arial" font-size="4" fill="#2c3e50">SCALE 1:100</text>
  
  <!-- Drawing tools -->
  <g stroke="#95a5a6" stroke-width="1" fill="none">
    <circle cx="50" cy="54" r="3"/>
    <line x1="48" y1="56" x2="52" y2="52"/>
  </g>
  
  <text x="32" y="62" text-anchor="middle" font-family="Arial" font-size="8" fill="#2c3e50">Structural Drawing</text>
</svg>