<?xml version="1.0" encoding="UTF-8" standalone="no"?>
<svg xmlns="http://www.w3.org/2000/svg" width="64" height="64" viewBox="0 0 64 64">
  <!-- Table outline -->
  <rect x="8" y="12" width="48" height="40" fill="#ffffff" stroke="#000000" stroke-width="2" />
  
  <!-- Table header -->
  <rect x="8" y="12" width="48" height="8" fill="#3498db" stroke="#000000" stroke-width="1" />
  
  <!-- Table vertical lines -->
  <line x1="20" y1="12" x2="20" y2="52" stroke="#000000" stroke-width="1" />
  <line x1="32" y1="12" x2="32" y2="52" stroke="#000000" stroke-width="1" />
  <line x1="44" y1="12" x2="44" y2="52" stroke="#000000" stroke-width="1" />
  
  <!-- Table horizontal lines -->
  <line x1="8" y1="20" x2="56" y2="20" stroke="#000000" stroke-width="1" />
  <line x1="8" y1="28" x2="56" y2="28" stroke="#000000" stroke-width="1" />
  <line x1="8" y1="36" x2="56" y2="36" stroke="#000000" stroke-width="1" />
  <line x1="8" y1="44" x2="56" y2="44" stroke="#000000" stroke-width="1" />
  
  <!-- Reaction force indicators -->
  <circle cx="14" cy="24" r="4" fill="#e74c3c" />
  <circle cx="14" cy="32" r="4" fill="#e74c3c" />
  <circle cx="14" cy="40" r="4" fill="#e74c3c" />
  <circle cx="14" cy="48" r="4" fill="#e74c3c" />
  
  <!-- Reaction values (numbers) -->
  <text x="26" y="25" font-family="Arial" font-size="7" text-anchor="middle" fill="#000000">15.4</text>
  <text x="26" y="33" font-family="Arial" font-size="7" text-anchor="middle" fill="#000000">8.2</text>
  <text x="26" y="41" font-family="Arial" font-size="7" text-anchor="middle" fill="#000000">12.0</text>
  <text x="26" y="49" font-family="Arial" font-size="7" text-anchor="middle" fill="#000000">5.7</text>
  
  <!-- Moment values (numbers) -->
  <text x="38" y="25" font-family="Arial" font-size="7" text-anchor="middle" fill="#000000">7.2</text>
  <text x="38" y="33" font-family="Arial" font-size="7" text-anchor="middle" fill="#000000">3.5</text>
  <text x="38" y="41" font-family="Arial" font-size="7" text-anchor="middle" fill="#000000">9.1</text>
  <text x="38" y="49" font-family="Arial" font-size="7" text-anchor="middle" fill="#000000">4.8</text>
  
  <!-- Node names -->
  <text x="50" y="25" font-family="Arial" font-size="7" text-anchor="middle" fill="#000000">N1</text>
  <text x="50" y="33" font-family="Arial" font-size="7" text-anchor="middle" fill="#000000">N2</text>
  <text x="50" y="41" font-family="Arial" font-size="7" text-anchor="middle" fill="#000000">N3</text>
  <text x="50" y="49" font-family="Arial" font-size="7" text-anchor="middle" fill="#000000">N4</text>
  
  <!-- Table header labels -->
  <text x="14" y="18" font-family="Arial" font-size="7" font-weight="bold" text-anchor="middle" fill="#ffffff">R</text>
  <text x="26" y="18" font-family="Arial" font-size="7" font-weight="bold" text-anchor="middle" fill="#ffffff">FX</text>
  <text x="38" y="18" font-family="Arial" font-size="7" font-weight="bold" text-anchor="middle" fill="#ffffff">MX</text>
  <text x="50" y="18" font-family="Arial" font-size="7" font-weight="bold" text-anchor="middle" fill="#ffffff">Node</text>
</svg>